<svg width="70" height="61" viewBox="0 0 70 61" xmlns="http://www.w3.org/2000/svg"><title>Compose</title><defs><linearGradient x1="14.645%" y1="85.355%" x2="85.355%" y2="14.645%" id="a"><stop stop-color="#00A1FF" offset="0%"/><stop stop-color="#00CFFF" offset="100%"/></linearGradient></defs><g fill="none" fill-rule="evenodd"><path d="M.038 30.615c0 16.778 13.602 30.38 30.38 30.38 16.78 0 30.381-13.602 30.381-30.38 0-16.78-13.602-30.38-30.38-30.38-16.779 0-30.38 13.6-30.38 30.38" fill="url(#a)" transform="translate(.17 .005)"/><path d="M68.205 32.901H53.643c-.92 0-1.667-.746-1.667-1.667V16.672c0-.92.747-1.667 1.667-1.667h14.562c.92 0 1.667.746 1.667 1.667v14.562c0 .92-.746 1.667-1.667 1.667M43.733 57.302H29.17c-.92 0-1.667-.746-1.667-1.667V41.073c0-.92.747-1.667 1.667-1.667h14.563c.92 0 1.666.746 1.666 1.667v14.562c0 .92-.746 1.667-1.666 1.667M68.205 57.302H53.643c-.92 0-1.667-.746-1.667-1.667V41.073c0-.92.747-1.667 1.667-1.667h14.562c.92 0 1.667.746 1.667 1.667v14.562c0 .92-.746 1.667-1.667 1.667" fill="#FFF"/></g></svg>