<svg width="70" height="67" viewBox="0 0 70 67" xmlns="http://www.w3.org/2000/svg"><title>Connect</title><defs><linearGradient x1="14.645%" y1="85.355%" x2="85.355%" y2="14.645%" id="a"><stop stop-color="#00A1FF" offset="0%"/><stop stop-color="#00CFFF" offset="100%"/></linearGradient></defs><g fill="none" fill-rule="evenodd"><path d="M0 34.38c0 16.779 13.602 30.38 30.38 30.38 16.779 0 30.38-13.601 30.38-30.38C60.76 17.602 47.16 4 30.38 4 13.602 4 0 17.602 0 34.38" fill="url(#a)" transform="translate(0 .831)"/><path d="M38.969 39.545a9 9 0 0 1-9 9 9 9 0 1 1 9-9M64.302 9.915a9 9 0 0 1-9 9 9 9 0 1 1 9-9M69.76 57.545a9 9 0 1 1-18 0 9 9 0 0 1 18 0" fill="#FFF"/><path d="M29.969 39.545l25.333-29.63M60.76 57.545l-30.791-18" stroke="#FFF" stroke-width="2"/></g></svg>