<svg width="66" height="61" viewBox="0 0 66 61" xmlns="http://www.w3.org/2000/svg"><title>Create</title><defs><linearGradient x1="14.645%" y1="85.355%" x2="85.355%" y2="14.645%" id="a"><stop stop-color="#00A1FF" offset="0%"/><stop stop-color="#00CFFF" offset="100%"/></linearGradient></defs><g fill="none" fill-rule="evenodd"><path d="M0 30.38c0 16.779 13.602 30.38 30.38 30.38 16.779 0 30.38-13.601 30.38-30.38C60.76 13.602 47.16 0 30.38 0 13.602 0 0 13.602 0 30.38" fill="url(#a)" transform="translate(0 .145)"/><path d="M64.41 21.92H27.21a1.443 1.443 0 0 1-1.443-1.443v-6.448c0-.797.646-1.443 1.443-1.443H64.41c.796 0 1.442.646 1.442 1.443v6.448c0 .797-.646 1.442-1.442 1.442M56.158 35.148h-28.95a1.443 1.443 0 0 1-1.442-1.442v-6.448c0-.797.646-1.443 1.442-1.443h28.95c.797 0 1.442.646 1.442 1.443v6.448c0 .797-.645 1.442-1.442 1.442M64.41 48.378H27.21a1.443 1.443 0 0 1-1.443-1.443v-6.448c0-.797.646-1.443 1.443-1.443H64.41c.796 0 1.442.646 1.442 1.443v6.448c0 .797-.646 1.443-1.442 1.443" fill="#FFF"/></g></svg>