<svg width="73" height="62" viewBox="0 0 73 62" xmlns="http://www.w3.org/2000/svg"><title>Customize</title><defs><linearGradient x1="14.645%" y1="85.355%" x2="85.355%" y2="14.645%" id="a"><stop stop-color="#00A1FF" offset="0%"/><stop stop-color="#00CFFF" offset="100%"/></linearGradient></defs><g fill="none" fill-rule="evenodd"><path d="M0 30.38C0 47.16 13.602 60.76 30.38 60.76c16.779 0 30.38-13.601 30.38-30.38C60.76 13.602 47.16 0 30.38 0 13.602 0 0 13.602 0 30.38" fill="url(#a)" transform="translate(0 .926)"/><path d="M53.52 27.973a9.438 9.438 0 0 1-9.437 9.437 9.437 9.437 0 0 1-9.438-9.437 9.438 9.438 0 0 1 9.438-9.438 9.438 9.438 0 0 1 9.438 9.438M72.563 27.973a5.136 5.136 0 1 1-10.272 0 5.136 5.136 0 0 1 10.272 0" fill="#FFF"/><path d="M67.427 27.973c0 12.893-10.451 23.344-23.344 23.344S20.738 40.866 20.738 27.973 31.19 4.628 44.083 4.628c12.893 0 23.344 10.452 23.344 23.345z" stroke="#FFF" stroke-width="2"/></g></svg>